<svg xmlns="http://www.w3.org/2000/svg" aria-hidden="true" style="position:absolute;width:0;height:0;overflow:hidden"><defs><symbol id="icon-close_40px" viewBox="0 0 32 32"><path d="M23.733 10.304 22.229 8.8l-5.963 5.963L10.303 8.8l-1.504 1.504 5.963 5.963-5.963 5.963 1.504 1.504 5.963-5.963 5.963 5.963 1.504-1.504-5.963-5.963 5.963-5.963z"/></symbol><symbol id="icon-menu_40px" viewBox="0 0 32 32"><path d="M6.4 11.733V9.6h19.2v2.133H6.4zm0 5.334h19.2v-2.133H6.4v2.133zm0 5.333h19.2v-2.133H6.4V22.4z"/></symbol><symbol id="icon-phone-black-18dp-1" viewBox="0 0 32 32"><path d="m24.882 19.773-3.268-.373a2.561 2.561 0 0 0-2.11.733L17.137 22.5a19.357 19.357 0 0 1-8.478-8.478l2.38-2.38a2.561 2.561 0 0 0 .733-2.11l-.373-3.242a2.575 2.575 0 0 0-2.56-2.277H6.613c-1.454 0-2.663 1.209-2.573 2.663.682 10.987 9.469 19.761 20.443 20.443 1.454.09 2.663-1.119 2.663-2.573V22.32a2.55 2.55 0 0 0-2.264-2.547z"/></symbol><symbol id="icon-envelope" viewBox="0 0 43 32"><path d="M38.667 0H4C1.794 0 0 1.794 0 4v24c0 2.206 1.794 4 4 4h34.667c2.206 0 4-1.794 4-4V4c0-2.206-1.794-4-4-4zm0 2.667c.181 0 .353.038.511.103L21.334 18.236 3.49 2.77a1.32 1.32 0 0 1 .511-.103h34.667zm0 26.666H4A1.334 1.334 0 0 1 2.667 28V5.587L20.46 21.008a1.335 1.335 0 0 0 1.748 0L40.001 5.587V28c0 .736-.598 1.333-1.333 1.333z"/></symbol><symbol id="icon-linkedin-1" viewBox="0 0 32 32"><path d="M31.992 32v-.001H32V20.263c0-5.741-1.236-10.164-7.948-10.164-3.227 0-5.392 1.771-6.276 3.449h-.093v-2.913h-6.364v21.364h6.627V21.42c0-2.785.528-5.479 3.977-5.479 3.399 0 3.449 3.179 3.449 5.657v10.401h6.62zM.528 10.636h6.635V32H.528V10.636zM3.843 0C1.722 0 0 1.721 0 3.843s1.721 3.879 3.843 3.879c2.121 0 3.843-1.757 3.843-3.879A3.846 3.846 0 0 0 3.843 0z"/></symbol><symbol id="icon-facebook-1" viewBox="0 0 32 32"><path d="M21.329 5.313h2.921V.225C23.746.156 22.013 0 19.994 0c-4.212 0-7.097 2.649-7.097 7.519V12H8.249v5.688h4.648V32h5.699V17.689h4.46l.708-5.688h-5.169V8.082c.001-1.644.444-2.769 2.735-2.769z"/></symbol><symbol id="icon-twitter-1" viewBox="0 0 32 32"><path d="M32 6.078c-1.19.522-2.458.868-3.78 1.036a6.523 6.523 0 0 0 2.886-3.626 13.11 13.11 0 0 1-4.16 1.588A6.574 6.574 0 0 0 22.154 3c-3.632 0-6.556 2.948-6.556 6.562 0 .52.044 1.02.152 1.496-5.454-.266-10.28-2.88-13.522-6.862a6.605 6.605 0 0 0-.898 3.316 6.57 6.57 0 0 0 2.914 5.452 6.479 6.479 0 0 1-2.964-.808v.072c0 3.188 2.274 5.836 5.256 6.446a6.548 6.548 0 0 1-1.72.216 5.8 5.8 0 0 1-1.242-.112c.85 2.598 3.262 4.508 6.13 4.57a13.182 13.182 0 0 1-8.134 2.798c-.538 0-1.054-.024-1.57-.09A18.469 18.469 0 0 0 10.064 29c12.072 0 18.672-10 18.672-18.668 0-.29-.01-.57-.024-.848A13.087 13.087 0 0 0 32 6.078z"/></symbol><symbol id="icon-instagram-2" viewBox="0 0 32 32"><path d="M31.969 9.408c-.075-1.7-.35-2.869-.744-3.882a7.806 7.806 0 0 0-1.851-2.838A7.867 7.867 0 0 0 26.542.844C25.523.45 24.36.175 22.66.1 20.947.019 20.403 0 16.059 0s-4.888.019-6.595.094c-1.7.075-2.869.35-3.882.744a7.803 7.803 0 0 0-2.838 1.85A7.867 7.867 0 0 0 .9 5.52C.506 6.539.231 7.702.156 9.402c-.081 1.713-.1 2.257-.1 6.601s.019 4.888.094 6.595c.075 1.7.35 2.869.744 3.882a7.895 7.895 0 0 0 1.85 2.838 7.867 7.867 0 0 0 2.832 1.844c1.019.394 2.182.669 3.882.744 1.706.075 2.25.094 6.595.094s4.888-.019 6.595-.094c1.7-.075 2.869-.35 3.882-.744a8.184 8.184 0 0 0 4.682-4.682c.394-1.019.669-2.182.744-3.882.075-1.707.094-2.251.094-6.595s-.006-4.888-.081-6.595zm-2.882 13.065c-.069 1.563-.331 2.407-.55 2.969a5.31 5.31 0 0 1-3.038 3.038c-.563.219-1.413.481-2.969.55-1.688.075-2.194.094-6.464.094s-4.782-.019-6.464-.094c-1.563-.069-2.407-.331-2.969-.55a4.926 4.926 0 0 1-1.838-1.194 4.974 4.974 0 0 1-1.194-1.838c-.219-.563-.481-1.413-.55-2.969-.075-1.688-.094-2.194-.094-6.464s.019-4.782.094-6.464c.069-1.563.331-2.407.55-2.969a4.868 4.868 0 0 1 1.2-1.838A4.974 4.974 0 0 1 6.639 3.55c.563-.219 1.413-.481 2.969-.55 1.688-.075 2.194-.094 6.464-.094 4.276 0 4.782.019 6.464.094 1.563.069 2.407.331 2.969.55a4.914 4.914 0 0 1 1.838 1.194 4.974 4.974 0 0 1 1.194 1.838c.219.563.481 1.413.55 2.969.075 1.688.094 2.194.094 6.464s-.019 4.77-.094 6.458z"/><path d="M16.059 7.783c-4.538 0-8.22 3.682-8.22 8.22s3.682 8.22 8.22 8.22 8.22-3.682 8.22-8.22-3.682-8.22-8.22-8.22zm0 13.552a5.333 5.333 0 0 1 0-10.664 5.333 5.333 0 0 1 0 10.664zM26.524 7.458a1.919 1.919 0 1 1-3.838 0 1.919 1.919 0 0 1 3.838 0z"/></symbol><symbol id="icon-smartphone" viewBox="0 0 32 32"><path d="M23 0H9C7.346 0 6 1.346 6 3v26c0 1.654 1.346 3 3 3h14c1.654 0 3-1.346 3-3V3c0-1.654-1.346-3-3-3zM9 2h14a1 1 0 0 1 1 1v21H8V3a1 1 0 0 1 1-1zm14 28H9a1 1 0 0 1-1-1v-3h16v3a1 1 0 0 1-1 1z"/><path d="M10.707 27.478c.391.365.391.956 0 1.321s-1.024.365-1.414 0c-.391-.365-.391-.956 0-1.321s1.024-.365 1.414 0z"/></symbol><symbol id="icon-CHAPS-logo-bez-tla" viewBox="0 0 35 32"><path d="M17.076 5.55c-.371.022-.784.08-1.397.196-.42.08-1.207.318-1.677.507-.183.073-1.048.473-1.255.579a9 9 0 0 0-.85.494l-.099.063-.096-.022c-.27-.063-.482-.05-.936.058-.371.087-.589.195-1.031.511-.417.297-.751.613-1.293 1.216a4.423 4.423 0 0 0-.171.208c-.109.138-.212.268-.377.48-.275.35-.62.903-.808 1.303-.13.273-.178.41-.249.717-.072.299-.072.36.002.664.044.19.056.213.154.35.109.152.287.309.43.379a.512.512 0 0 1 .164.157c.051.068.135.154.188.191.061.044.094.077.087.092-.015.046-.09.451-.128.702l-.036.246-.186.198c-.101.108-.224.246-.271.307l-.16.205c-.512.651-.878 1.301-1.088 1.933-.06.181-.205.823-.239 1.064-.079.545-.026 1.132.167 1.836l.039.145c.063.241.263.666.406.867.135.186.323.362.584.548a2.1 2.1 0 0 0 .837.379c.516.13.709.15 1.045.108l.15-.02.038.05c.128.164.482.558.719.803.596.613 1.156 1.067 2.01 1.631.393.258 1.1.63 1.528.801.219.089.645.234.922.316.287.085 1.038.271 1.195.297.056.009.21.036.341.061.912.169 2.126.21 3.039.101.674-.08 1.636-.299 2.158-.492.118-.043.22-.079.229-.079.014 0 .215-.082.55-.227.714-.306 1.61-.869 2.321-1.46 1.2-.997 2.377-2.551 3.021-3.991.174-.389.401-1.074.526-1.578.109-.446.239-1.088.287-1.41.032-.227.043-.335.089-.934l.02-.253.07-.019c.128-.034.447-.196.61-.311.383-.268.558-.405.681-.524.2-.2.43-.514.546-.75.063-.128.154-.456.154-.56 0-.029-.022-.142-.05-.249a.97.97 0 0 0-.254-.476 2.334 2.334 0 0 0-.439-.331 1.42 1.42 0 0 0-.509-.143c-.079 0-.319.051-.398.084-.036.015-.038.007-.08-.311-.039-.28-.043-.331-.022-.362.082-.125.224-.661.212-.794a4.293 4.293 0 0 0-.065-.314c-.05-.212-.065-.249-.143-.365a1.85 1.85 0 0 0-.444-.463c-.157-.113-.201-.138-.275-.157-.287-.075-.56-.135-.623-.135-.09 0-.536.104-.608.142a2.29 2.29 0 0 0-.176.12l-.126.092-.154-.207c-.271-.364-.371-.482-.871-1.023a9.916 9.916 0 0 0-1.834-1.579 9.487 9.487 0 0 0-.458-.294c-.005 0-.058-.031-.118-.067a5.014 5.014 0 0 0-.289-.162l-.227-.121a10.19 10.19 0 0 0-.652-.292c-.16-.068-.352-.138-.712-.26a17.03 17.03 0 0 0-.82-.224c-.251-.063-.84-.162-1.221-.207a13.404 13.404 0 0 0-1.605-.034zm1.378.555a9.258 9.258 0 0 1 4.412 1.545c.581.388 1.177.89 1.622 1.368.702.751 1.113 1.258 1.159 1.431.01.041.075.167.143.282.068.113.154.26.191.326l.067.12.014-.077c.031-.172.084-.353.123-.42.065-.109.27-.319.36-.369a.914.914 0 0 1 .401-.099c.12 0 .389.067.502.123.085.044.34.29.393.381.056.094.111.304.111.418 0 .154-.08.398-.193.591l-.056.094.056.396c.068.487.092.774.092 1.125v.27l.072-.036c.13-.067.36-.234.487-.357.258-.248.401-.261.7-.07.178.114.314.261.353.379.05.149.029.289-.068.483-.09.179-.268.429-.415.579-.12.123-.384.324-.553.423a.732.732 0 0 0-.14.097c-.024.043-.384.201-.599.268a2.837 2.837 0 0 0-.21.067c-.009.009-.067.668-.079.898a8.636 8.636 0 0 1-.198 1.375c-.159.741-.254 1.076-.473 1.665-.374 1.001-.961 1.969-1.812 2.987-1.653 1.976-3.945 3.178-6.458 3.391-.505.043-1.451.031-2.015-.026-.934-.094-2.204-.415-3.017-.762a10.355 10.355 0 0 1-2.746-1.75c-.458-.41-1.091-1.088-1.347-1.438-.106-.147-.126-.166-.164-.159-.024.005-.096.02-.162.036a3.164 3.164 0 0 1-.751.029 3.115 3.115 0 0 1-.726-.224 2.155 2.155 0 0 1-.611-.451c-.128-.131-.15-.167-.258-.389a3.31 3.31 0 0 1-.266-.724 4.213 4.213 0 0 1-.102-1.545c.155-1.132.739-2.244 1.701-3.236l.213-.222.031-.239c.039-.316.135-.833.203-1.112l.056-.224-.104-.021a.628.628 0 0 1-.323-.155c-.07-.065-.181-.248-.181-.299 0-.012-.044-.031-.097-.043a.475.475 0 0 1-.271-.14c-.29-.268-.26-.676.108-1.405.253-.502.459-.809 1.009-1.498a7.02 7.02 0 0 1 .632-.704c.526-.529.854-.786 1.257-.982.422-.205.84-.258 1.241-.155l.138.036.138-.092c.077-.051.164-.108.195-.125l.213-.128c.49-.295 1.383-.722 1.993-.953.265-.101.71-.242.968-.307.22-.055.803-.169 1.019-.198a10.877 10.877 0 0 1 2.022-.051z"/><path d="M16.879 6.769a9.676 9.676 0 0 0-1.86.326 9.077 9.077 0 0 0-3.009 1.41c-.044.043-.051.041-.171-.017-.242-.121-.656-.137-.886-.034-.019.007-.108.046-.196.084-.552.239-1.301.96-2.085 2.006-.357.475-.652 1.007-.801 1.44-.072.213-.06.306.046.331.061.015.097-.026.178-.203.495-1.098 1.171-2.07 1.783-2.563.313-.253.572-.319.572-.147 0 .111-.188.429-.394.664a13.57 13.57 0 0 0-1.313 1.767c-.131.217-.333.628-.36.736-.043.161.05.27.172.203a1.72 1.72 0 0 0 .172-.285c.838-1.605 1.769-2.732 2.283-2.768.13-.009.162.017.162.123 0 .113-.097.297-.249.466-.434.483-.82.972-1.168 1.475-.147.212-.423.649-.475.75-.017.032-.06.104-.097.159-.082.121-.184.331-.184.381 0 .046.058.121.104.135.055.017.111-.032.179-.157.408-.745.702-1.195 1.11-1.708.27-.336.676-.755.861-.885.266-.186.487-.282.652-.282.106 0 .113.017.067.169-.056.188-.36.618-.664.946-.198.213-.318.355-.704.84-.328.412-.864 1.334-.85 1.463.007.073.077.125.135.099.048-.022.131-.15.237-.359.039-.08.094-.176.12-.213l.186-.299c.198-.324.343-.529.613-.861.128-.161.287-.355.35-.435.065-.082.188-.224.275-.318s.234-.26.326-.367c.094-.108.178-.201.19-.208.01-.007.061-.065.111-.128.258-.324.371-.575.386-.859a.598.598 0 0 0-.038-.297 1.182 1.182 0 0 0-.246-.429.453.453 0 0 1-.07-.079c0-.022.352-.249.709-.454a9.035 9.035 0 0 1 3.919-1.168 12.448 12.448 0 0 1 1.409.019 9.261 9.261 0 0 1 2.672.668c.26.109.908.435 1.118.565a9.225 9.225 0 0 1 2.476 2.163c.133.167.183.217.242.244.12.053.234.014.287-.101.056-.12.026-.183-.261-.533a9.404 9.404 0 0 0-1.685-1.61c-.929-.68-1.902-1.173-2.886-1.463a12.973 12.973 0 0 0-1.53-.333 10.086 10.086 0 0 0-1.919-.072z"/><path d="M26.775 10.857c-.128.131-.142.178-.152.492l-.01.273-.126.213c-.499.835-1.144 1.8-1.607 2.397-.564.729-1.129 1.284-1.439 1.416-.075.031-.085.048.108-.195.217-.273.309-.43.451-.782.34-.835.369-1.369.094-1.668-.225-.244-.668-.277-1.009-.075a4.73 4.73 0 0 0-.635.48 2.261 2.261 0 0 1-.172.147 1.002 1.002 0 0 1 .019-.159c.031-.205.029-.352-.003-.435-.068-.169-.273-.201-.396-.06-.051.056-.07.102-.186.418-.106.294-.137.379-.283.804-.162.47-.179.507-.324.724-.577.861-1.824 2.23-2.268 2.491l-.055.032.01-.075c.005-.051.143-.341.441-.931.422-.838.43-.857.42-.939-.007-.067-.02-.094-.07-.138-.07-.065-.123-.082-.208-.067-.092.019-.147.084-.282.335-.441.826-1.048 1.624-1.445 1.892-.287.195-.461.184-.637-.034-.186-.231-.278-.528-.241-.777.038-.248.167-.505.384-.76.131-.155.557-.519.779-.666.512-.34 1.071-.504 1.562-.458.102.009.242.032.307.053.067.021.164.041.219.044.096.009.099.007.166-.06.063-.063.068-.075.068-.162 0-.135-.056-.198-.225-.251a1.774 1.774 0 0 0-.35-.084 2.8 2.8 0 0 0-1.101.092c-.492.145-.937.41-1.45.859-.365.321-.586.608-.715.932-.099.246-.109.304-.109.591 0 .246.003.275.048.401.026.075.073.19.106.254s.058.128.058.138c0 .048-.949.789-1.243.97-.179.111-.352.2-.388.2-.055 0-.019-.102.205-.598l.231-.512c.036-.08.201-.451.365-.825.295-.666.301-.681.301-.796 0-.102-.005-.126-.044-.172-.05-.058-.224-.154-.28-.154-.06 0-.232.065-.345.13-.374.219-.922.692-1.916 1.653a16.51 16.51 0 0 1-.475.451c-.029.022-.031.02-.021-.026.014-.056.22-.572.359-.898.254-.601.456-1.035.61-1.317.376-.681.466-.852.635-1.188.396-.791.857-1.882.874-2.068.015-.149-.084-.254-.234-.254-.143 0-.171.031-.348.396l-.343.705c-.27.552-.673 1.402-.922 1.945-.278.603-.447.89-1.089 1.854-.311.464-.502.734-.907 1.272-.64.849-1.031 1.282-1.52 1.68-.881.717-1.682.844-2.264.357a.553.553 0 0 1-.178-.242c-.097-.2-.19-.497-.236-.744a3.329 3.329 0 0 1 .002-1.016c.123-.705.471-1.41 1.05-2.126.205-.253.715-.77.966-.98.152-.126.224-.171.47-.292.49-.241.816-.343 1.144-.362.369-.019.555.079.685.36.2.439-.138 1.332-.714 1.882-.429.41-1.081.767-1.699.927a.256.256 0 0 0-.123.079c-.046.053-.053.073-.053.157 0 .087.005.099.067.16.06.06.075.067.154.067.097 0 .391-.09.659-.205 1.223-.517 1.989-1.366 2.213-2.444.092-.447-.022-.878-.304-1.158a1.01 1.01 0 0 0-.56-.283 1.358 1.358 0 0 0-.478-.007c-.306.038-.64.143-1.059.333-.333.152-.483.244-.707.43-.64.534-1.243 1.236-1.614 1.88-.412.712-.608 1.387-.608 2.092 0 .324.027.55.102.85.087.345.248.722.369.867.026.029.099.097.167.152.751.61 1.721.505 2.763-.301.22-.169.577-.504.804-.751.283-.311.48-.553.886-1.093.304-.403.372-.487.372-.459l-.067.227c-.133.435-.145.519-.087.615.056.094.201.138.292.089.019-.009.377-.36.797-.78.745-.746 1.202-1.178 1.651-1.564.224-.193.425-.352.442-.352.026 0-.003.079-.179.471-.106.234-.231.517-.28.63s-.161.36-.246.552c-.178.396-.215.497-.242.668a.477.477 0 0 0 .002.22c.031.143.06.186.167.254.171.111.345.094.664-.063.338-.166 1.011-.654 1.598-1.159.029-.024.039-.022.12.019.271.14.517.128.842-.041.109-.058.335-.227.425-.319.036-.039.075-.07.087-.07.01 0 .026.034.031.077.015.092.065.155.183.231.084.055.09.056.215.044a.517.517 0 0 0 .256-.079c.372-.2.768-.579 1.684-1.605.041-.044.072-.068.077-.055.003.01-.02.102-.055.203a11.354 11.354 0 0 0-.429 1.849c-.053.348-.055.468-.009.541.085.142.307.142.401-.002.017-.024.044-.155.068-.321.067-.454.193-1.007.394-1.721.195-.693.275-.914.478-1.32.306-.611.606-1.038 1.023-1.457.249-.251.403-.379.651-.543.203-.135.435-.149.512-.032.039.061.051.256.026.408a4.53 4.53 0 0 1-.345 1.001 2.355 2.355 0 0 1-.567.707c-.205.161-.212.162-.405.133-.357-.053-.61-.017-.715.104a.45.45 0 0 0-.08.307c.015.079.092.155.183.183.048.014.16.022.314.02a1.14 1.14 0 0 0 .388-.046l.149-.046.133.038c.196.053.47.053.62-.002.591-.213 1.334-.961 2.28-2.297.188-.266.611-.908.826-1.253.079-.125.149-.222.157-.213.02.021.063.381.085.722.038.557-.019 1.118-.133 1.361l-.031.063-.222.046c-.439.091-.801.2-.941.287-.058.036-.109.13-.121.222a.248.248 0 0 0 .097.21c.094.067.458.126.664.109.297-.027.499-.118.705-.314l.142-.137.196-.036a2.6 2.6 0 0 0 .692-.232c.273-.133.599-.343.726-.47.024-.024.114-.102.201-.176.085-.073.178-.162.201-.2.12-.181.058-.359-.125-.359-.109 0-.181.038-.328.167a3.813 3.813 0 0 1-.832.586c-.176.091-.475.201-.495.183a1.266 1.266 0 0 1 .027-.203c.096-.538.07-1.26-.075-2.232-.027-.178-.038-.294-.027-.318.007-.021.053-.104.102-.188.109-.186.159-.323.145-.401-.007-.038-.043-.092-.106-.157a.436.436 0 0 0-.348-.152c-.065 0-.082.009-.152.082z"/><path d="M26.245 16.102a1.3 1.3 0 0 0-.526.314c-.229.215-.401.511-1.079 1.846-.456.898-.577 1.127-.85 1.605-.133.234-.447.722-.606.946a5.5 5.5 0 0 1-.562.678c-.152.157-.171.184-.21.299-.024.07-.065.222-.089.34-.041.193-.046.254-.05.628l-.003.417-.053.106c-.084.171-.193.256-.634.5-.145.08-.686.326-.896.406-.253.097-.774.268-1.016.331-.386.102-.852.184-1.426.253-.364.043-1.373.043-1.75 0-.849-.096-1.397-.217-2.131-.471a9.149 9.149 0 0 1-2.138-1.086 8.91 8.91 0 0 1-1.47-1.264c-.405-.437-.396-.429-.473-.447-.212-.053-.321.109-.219.328.089.186.635.75 1.163 1.199.347.294 1.002.75 1.434.996a8.847 8.847 0 0 0 2.365.939c.878.219 1.496.297 2.348.297.992 0 1.878-.138 2.903-.453a7.01 7.01 0 0 0 .857-.316 9.514 9.514 0 0 0 2.215-1.335 9.607 9.607 0 0 0 2.775-3.635c.377-.874.649-1.943.744-2.932.034-.365.038-.345-.041-.394a.841.841 0 0 0-.582-.094z"/></symbol></defs></svg>